<?xml version="1.0" encoding="UTF-8"?>
<!DOCTYPE svg PUBLIC "-//W3C//DTD SVG 1.1//EN" "http://www.w3.org/Graphics/SVG/1.1/DTD/svg11.dtd">
<svg xmlns="http://www.w3.org/2000/svg" version="1.1" width="500px" height="500px" style="shape-rendering:geometricPrecision; text-rendering:geometricPrecision; image-rendering:optimizeQuality; fill-rule:evenodd; clip-rule:evenodd" xmlns:xlink="http://www.w3.org/1999/xlink">
<g><path style="opacity:1" fill="#f8f9f9" d="M 172.5,87.5 C 171.167,92.1667 171.167,96.8333 172.5,101.5C 177.651,102.327 182.984,102.827 188.5,103C 189.931,103.465 191.097,104.299 192,105.5C 194.473,115.33 194.473,125.33 192,135.5C 191.788,141.129 188.955,144.296 183.5,145C 173.115,147.82 162.782,147.82 152.5,145C 151.177,144.184 150.511,143.017 150.5,141.5C 150.5,133.5 150.5,125.5 150.5,117.5C 144.642,117.178 138.975,117.511 133.5,118.5C 124.241,120.231 114.908,120.731 105.5,120C 102.906,116.949 102.073,113.449 103,109.5C 105.236,96.3183 108.236,83.3183 112,70.5C 114.5,64 119,59.5 125.5,57C 139.879,53.226 154.213,49.3927 168.5,45.5C 170.833,45.1667 172.167,43.8333 172.5,41.5C 173.371,35.0903 175.038,28.9236 177.5,23C 191.009,17.9499 205.009,15.4499 219.5,15.5C 221.221,25.0682 220.388,34.4015 217,43.5C 214.688,47.5805 211.188,50.0805 206.5,51C 198.367,51.0745 190.367,52.0745 182.5,54C 179.193,56.7783 177.026,60.2783 176,64.5C 174.432,72.1192 173.265,79.7859 172.5,87.5 Z"/></g>
<g><path style="opacity:1" fill="#f8f9f9" d="M 295.5,50.5 C 296.568,51.4345 297.901,51.7678 299.5,51.5C 317.64,50.7954 335.64,51.9621 353.5,55C 358.824,57.7986 361.49,62.2986 361.5,68.5C 361.232,70.099 361.566,71.4324 362.5,72.5C 364.479,87.7229 364.979,103.056 364,118.5C 363.79,121.234 362.956,123.734 361.5,126C 357.351,127.737 353.017,128.737 348.5,129C 332.167,129.667 315.833,129.667 299.5,129C 294.771,128.727 290.104,128.061 285.5,127C 282.667,125.5 280.5,123.333 279,120.5C 277.986,101.842 276.986,83.1752 276,64.5C 270.988,62.0716 265.655,61.0716 260,61.5C 254.39,61.4168 248.89,62.0834 243.5,63.5C 242.602,70.8111 241.769,78.1444 241,85.5C 240.731,88.3516 239.897,91.0182 238.5,93.5C 234.092,95.602 229.426,96.7686 224.5,97C 216.421,97.7996 208.421,97.6329 200.5,96.5C 199.329,95.6554 197.995,94.9887 196.5,94.5C 194.676,83.6506 195.51,72.9839 199,62.5C 200.571,60.0771 202.737,58.7438 205.5,58.5C 206.609,58.4431 207.609,58.1098 208.5,57.5C 216.68,57.3883 224.68,56.2216 232.5,54C 234.049,52.786 235.215,51.286 236,49.5C 236.283,42.363 237.283,35.363 239,28.5C 241.594,24.9527 245.094,23.1193 249.5,23C 259.5,22.3333 269.5,22.3333 279.5,23C 281.608,23.3599 283.608,24.0266 285.5,25C 286.977,28.6756 287.977,32.5089 288.5,36.5C 285.33,44.1803 287.663,48.8469 295.5,50.5 Z"/></g>
<g><path style="opacity:0.863" fill="#989fa2" d="M 172.5,41.5 C 172.167,43.8333 170.833,45.1667 168.5,45.5C 169.5,43.8333 170.833,42.5 172.5,41.5 Z"/></g>
<g><path style="opacity:0.553" fill="#535e63" d="M 299.5,51.5 C 297.901,51.7678 296.568,51.4345 295.5,50.5C 295.435,50.0618 295.601,49.7284 296,49.5C 297.302,50.0848 298.469,50.7515 299.5,51.5 Z"/></g>
<g><path style="opacity:0.463" fill="#3e4a50" d="M 208.5,57.5 C 207.609,58.1098 206.609,58.4431 205.5,58.5C 206.221,56.6182 207.221,56.2848 208.5,57.5 Z"/></g>
<g><path style="opacity:1" fill="#f3f4f4" d="M 377.5,63.5 C 384.426,63.0665 391.093,64.0665 397.5,66.5C 398.11,67.391 398.443,68.391 398.5,69.5C 399.393,76.374 400.393,83.2074 401.5,90C 393.539,91.9302 385.539,91.9302 377.5,90C 373.865,87.9038 371.865,84.7371 371.5,80.5C 371.5,79.5 371.5,78.5 371.5,77.5C 371.5,73.1667 371.5,68.8333 371.5,64.5C 373.735,64.7947 375.735,64.4614 377.5,63.5 Z"/></g>
<g><path style="opacity:0.757" fill="#afb5b7" d="M 377.5,63.5 C 375.735,64.4614 373.735,64.7947 371.5,64.5C 371.5,68.8333 371.5,73.1667 371.5,77.5C 371.167,77.5 370.833,77.5 370.5,77.5C 370.5,72.8333 370.5,68.1667 370.5,63.5C 372.833,63.5 375.167,63.5 377.5,63.5 Z"/></g>
<g><path style="opacity:0.007" fill="#0c1a20" d="M 398.5,69.5 C 398.443,68.391 398.11,67.391 397.5,66.5C 397.81,65.2617 398.31,65.2617 399,66.5C 399.74,67.7494 399.573,68.7494 398.5,69.5 Z"/></g>
<g><path style="opacity:0.706" fill="#697377" d="M 361.5,68.5 C 363.109,69.6654 363.443,70.9988 362.5,72.5C 361.566,71.4324 361.232,70.099 361.5,68.5 Z"/></g>
<g><path style="opacity:0.267" fill="#2a383e" d="M 370.5,77.5 C 370.833,77.5 371.167,77.5 371.5,77.5C 371.5,78.5 371.5,79.5 371.5,80.5C 369.618,79.779 369.285,78.779 370.5,77.5 Z"/></g>
<g><path style="opacity:0.106" fill="#364248" d="M 196.5,94.5 C 197.995,94.9887 199.329,95.6554 200.5,96.5C 199.127,96.6567 197.793,96.49 196.5,96C 195.262,95.31 195.262,94.81 196.5,94.5 Z"/></g>
<g><path style="opacity:0.631" fill="#969da0" d="M 172.5,87.5 C 172.646,92.3777 172.646,97.0444 172.5,101.5C 171.167,96.8333 171.167,92.1667 172.5,87.5 Z"/></g>
<g><path style="opacity:1" fill="#f6f7f7" d="M 436.5,159.5 C 435.596,160.209 435.263,161.209 435.5,162.5C 434.976,165.188 433.309,166.688 430.5,167C 417.5,167.333 404.5,167.667 391.5,168C 390.196,168.804 389.529,169.971 389.5,171.5C 390.954,178.59 390.621,185.59 388.5,192.5C 383.321,194.053 377.987,194.719 372.5,194.5C 368.5,194.333 364.5,194.167 360.5,194C 358.481,193.55 356.648,192.717 355,191.5C 350.562,180.019 350.395,168.519 354.5,157C 361.771,155.818 369.104,155.151 376.5,155C 377.931,154.535 379.097,153.701 380,152.5C 381.084,149.12 381.584,145.62 381.5,142C 380.755,133.153 380.255,124.319 380,115.5C 380.56,111.274 382.893,108.607 387,107.5C 400.566,107.87 414.066,110.037 427.5,114C 428.931,114.465 430.097,115.299 431,116.5C 435.536,130.451 437.369,144.785 436.5,159.5 Z"/></g>
<g><path style="opacity:1" fill="#f8f9f9" d="M 328.5,147.5 C 328.427,149.027 329.094,150.027 330.5,150.5C 332.059,153.868 332.892,157.535 333,161.5C 333.817,177.907 333.651,194.241 332.5,210.5C 331.566,211.568 331.232,212.901 331.5,214.5C 330.415,218.754 327.748,221.587 323.5,223C 305.171,223.931 286.838,224.264 268.5,224C 262.735,224.517 257.901,222.683 254,218.5C 252.696,202.258 252.029,185.925 252,169.5C 251.548,166.123 250.882,162.789 250,159.5C 248.56,157.954 246.727,157.121 244.5,157C 236.5,156.667 228.5,156.333 220.5,156C 218.481,155.55 216.648,154.717 215,153.5C 212.057,140.455 212.391,127.455 216,114.5C 216.833,113 218,111.833 219.5,111C 233.49,109.044 247.49,109.044 261.5,111C 261.167,111.333 260.833,111.667 260.5,112C 262.278,122.036 262.945,132.203 262.5,142.5C 265.839,142.89 269.173,143.39 272.5,144C 289.167,144.333 305.833,144.667 322.5,145C 324.811,145.236 326.811,146.069 328.5,147.5 Z"/></g>
<g><path style="opacity:0.238" fill="#546064" d="M 133.5,118.5 C 138.975,117.511 144.642,117.178 150.5,117.5C 150.5,125.5 150.5,133.5 150.5,141.5C 149.508,134.018 149.175,126.352 149.5,118.5C 144.167,118.5 138.833,118.5 133.5,118.5 Z"/></g>
<g><path style="opacity:1" fill="#f8f9f9" d="M 124.5,318.5 C 124.167,317.5 123.5,316.833 122.5,316.5C 119.832,303.308 118.998,289.974 120,276.5C 121.721,271.552 125.221,269.552 130.5,270.5C 136.823,271.359 143.157,271.525 149.5,271C 151.286,270.215 152.786,269.049 154,267.5C 154.993,263.558 155.66,259.558 156,255.5C 156.667,243.5 156.667,231.5 156,219.5C 157.122,210.292 153.122,205.959 144,206.5C 140.833,206.901 137.666,207.234 134.5,207.5C 133.77,217.475 133.27,227.475 133,237.5C 132.587,243.577 129.42,247.077 123.5,248C 116.833,248.667 110.167,248.667 103.5,248C 99.7148,247.627 96.2148,246.461 93,244.5C 91.767,234.225 91.1003,223.892 91,213.5C 90.6924,212.692 90.1924,212.025 89.5,211.5C 86.095,210.386 82.595,209.719 79,209.5C 70.5159,210.523 62.0159,210.69 53.5,210C 51.5448,209.047 49.8782,207.713 48.5,206C 49.9095,189.508 51.7428,173.008 54,156.5C 54.6205,147.73 59.1205,142.23 67.5,140C 76.6154,137.596 85.7821,135.429 95,133.5C 99.8329,133.332 102.5,135.665 103,140.5C 102.299,154.516 101.132,168.516 99.5,182.5C 99.4549,195.819 105.788,200.319 118.5,196C 121.663,194.52 123.496,192.02 124,188.5C 124.333,182.167 124.667,175.833 125,169.5C 125.45,167.481 126.283,165.648 127.5,164C 134.713,161.162 142.213,159.995 150,160.5C 160.511,157.645 166.011,161.478 166.5,172C 165.069,178.899 165.236,185.733 167,192.5C 167.903,193.701 169.069,194.535 170.5,195C 176.269,196.066 182.102,196.566 188,196.5C 202.162,195.644 216.329,195.477 230.5,196C 237.961,198.466 242.128,203.632 243,211.5C 243.667,232.833 243.667,254.167 243,275.5C 242.167,281.667 238.667,285.167 232.5,286C 214.637,286.682 196.804,286.182 179,284.5C 175.742,284.493 172.575,284.993 169.5,286C 168.299,286.903 167.465,288.069 167,289.5C 166.696,300.191 166.029,310.858 165,321.5C 164.25,322.126 163.416,322.626 162.5,323C 151.773,325.019 141.107,324.685 130.5,322C 128.273,321.059 126.273,319.892 124.5,318.5 Z"/></g>
<g><path style="opacity:0.553" fill="#6e777c" d="M 328.5,147.5 C 329.906,147.973 330.573,148.973 330.5,150.5C 329.094,150.027 328.427,149.027 328.5,147.5 Z"/></g>
<g><path style="opacity:0.49" fill="#5f696e" d="M 436.5,159.5 C 436.938,159.435 437.272,159.601 437.5,160C 436.934,160.995 436.267,161.828 435.5,162.5C 435.263,161.209 435.596,160.209 436.5,159.5 Z"/></g>
<g><path style="opacity:0.592" fill="#616b6f" d="M 332.5,210.5 C 333.443,212.001 333.109,213.335 331.5,214.5C 331.232,212.901 331.566,211.568 332.5,210.5 Z"/></g>
<g><path style="opacity:0.004" fill="#15232a" d="M 122.5,316.5 C 123.5,316.833 124.167,317.5 124.5,318.5C 123.167,318.5 122.5,317.833 122.5,316.5 Z"/></g>
<g><path style="opacity:1" fill="#f2f2f3" d="M 144.5,340.5 C 155.39,339.933 166.057,341.1 176.5,344C 179.053,354.301 180.053,364.801 179.5,375.5C 168.573,376.582 157.907,375.248 147.5,371.5C 144.515,361.305 143.515,350.971 144.5,340.5 Z"/></g>
<g><path style="opacity:1" fill="#e3e5e6" d="M 186.5,428.5 C 185.833,428.5 185.5,428.833 185.5,429.5C 183.167,429.5 180.833,429.5 178.5,429.5C 178.167,429.5 177.833,429.5 177.5,429.5C 177.5,428.833 177.167,428.5 176.5,428.5C 175.761,428.631 175.094,428.464 174.5,428C 174.579,425.695 174.746,423.195 175,420.5C 177.981,416.304 181.814,415.471 186.5,418C 189.132,421.568 189.132,425.068 186.5,428.5 Z"/></g>
<g><path style="opacity:0.503" fill="#717a7e" d="M 64.5,422.5 C 63.5,422.5 62.5,422.5 61.5,422.5C 61.5,438.167 61.5,453.833 61.5,469.5C 60.8122,454.334 60.1456,438.501 59.5,422C 61.3869,421.22 63.0536,421.387 64.5,422.5 Z"/></g>
<g><path style="opacity:1" fill="#f0f1f2" d="M 64.5,422.5 C 72.1739,422.334 79.8406,422.5 87.5,423C 95.1213,425.406 98.288,430.572 97,438.5C 95.5945,441.409 93.4278,443.409 90.5,444.5C 87.8333,445.167 87.8333,445.833 90.5,446.5C 98.1668,449.86 100.333,455.527 97,463.5C 95.5,465 94,466.5 92.5,468C 82.2456,469.426 71.9122,469.926 61.5,469.5C 61.5,453.833 61.5,438.167 61.5,422.5C 62.5,422.5 63.5,422.5 64.5,422.5 Z M 72.5,431.5 C 76.1191,432.18 79.7858,432.68 83.5,433C 84.8333,435.333 84.8333,437.667 83.5,440C 79.8865,440.936 76.2198,441.436 72.5,441.5C 72.8366,437.989 72.8366,434.656 72.5,431.5 Z M 72.5,450.5 C 76.1817,450.335 79.8484,450.501 83.5,451C 86.1667,454 86.1667,457 83.5,460C 79.8484,460.499 76.1817,460.665 72.5,460.5C 72.5,457.167 72.5,453.833 72.5,450.5 Z"/></g>
<g><path style="opacity:1" fill="#eff0f1" d="M 240.5,422.5 C 248.84,422.334 257.173,422.5 265.5,423C 274.301,426.096 277.801,432.263 276,441.5C 274.073,446.428 270.573,449.594 265.5,451C 261.179,451.499 256.846,451.666 252.5,451.5C 252.5,457.5 252.5,463.5 252.5,469.5C 248.486,469.666 244.486,469.499 240.5,469C 240.043,468.586 239.709,468.086 239.5,467.5C 240.484,452.548 240.817,437.548 240.5,422.5 Z M 252.5,431.5 C 255.91,431.457 259.243,431.957 262.5,433C 265.441,436.788 264.775,439.788 260.5,442C 257.854,442.497 255.187,442.664 252.5,442.5C 252.5,438.833 252.5,435.167 252.5,431.5 Z"/></g>
<g><path style="opacity:0.193" fill="#1e2b32" d="M 176.5,428.5 C 177.167,428.5 177.5,428.833 177.5,429.5C 178.152,430.725 179.319,431.392 181,431.5C 182.167,431.333 183.333,431.167 184.5,431C 182.292,430.809 180.292,430.309 178.5,429.5C 180.833,429.5 183.167,429.5 185.5,429.5C 186.167,429.5 186.5,429.167 186.5,428.5C 187.578,430.539 188.578,432.706 189.5,435C 188.934,435.995 188.267,436.828 187.5,437.5C 187.5,435.833 187.5,434.167 187.5,432.5C 183.5,432.5 179.5,432.5 175.5,432.5C 175.833,431.167 176.167,429.833 176.5,428.5 Z M 177.5,429.5 C 177.833,429.5 178.167,429.5 178.5,429.5C 180.292,430.309 182.292,430.809 184.5,431C 183.333,431.167 182.167,431.333 181,431.5C 179.319,431.392 178.152,430.725 177.5,429.5 Z"/></g>
<g><path style="opacity:0.176" fill="#3b484e" d="M 195.5,432.5 C 199.298,431.517 203.298,431.183 207.5,431.5C 207.232,433.099 207.566,434.432 208.5,435.5C 208.217,436.289 207.717,436.956 207,437.5C 206.506,435.866 206.34,434.199 206.5,432.5C 202.833,432.5 199.167,432.5 195.5,432.5 Z"/></g>
<g><path style="opacity:0.172" fill="#2a383e" d="M 364.5,432.5 C 368.351,431.191 372.351,431.191 376.5,432.5C 376.376,433.107 376.043,433.44 375.5,433.5C 372.038,432.518 368.371,432.185 364.5,432.5 Z"/></g>
<g><path style="opacity:0.247" fill="#344146" d="M 115.5,432.5 C 111.833,432.5 108.167,432.5 104.5,432.5C 104.5,444.833 104.5,457.167 104.5,469.5C 103.522,469.189 102.855,468.522 102.5,467.5C 103.018,455.588 103.351,443.588 103.5,431.5C 107.702,431.183 111.702,431.517 115.5,432.5 Z"/></g>
<g><path style="opacity:0.999" fill="#f1f2f3" d="M 115.5,432.5 C 115.338,434.527 115.505,436.527 116,438.5C 116.717,437.956 117.217,437.289 117.5,436.5C 118.585,434.413 120.251,433.08 122.5,432.5C 123.5,432.5 124.5,432.5 125.5,432.5C 125.5,436.167 125.5,439.833 125.5,443.5C 123.199,444.06 120.866,444.56 118.5,445C 117.874,445.75 117.374,446.584 117,447.5C 116.5,454.826 116.334,462.159 116.5,469.5C 112.5,469.5 108.5,469.5 104.5,469.5C 104.5,457.167 104.5,444.833 104.5,432.5C 108.167,432.5 111.833,432.5 115.5,432.5 Z"/></g>
<g><path style="opacity:0.115" fill="#313f44" d="M 115.5,432.5 C 116.167,433.833 116.833,435.167 117.5,436.5C 117.217,437.289 116.717,437.956 116,438.5C 115.505,436.527 115.338,434.527 115.5,432.5 Z"/></g>
<g><path style="opacity:0.815" fill="#b8bcbe" d="M 122.5,432.5 C 122.917,431.876 123.584,431.543 124.5,431.5C 125.713,431.747 126.38,432.414 126.5,433.5C 126.5,436.833 126.5,440.167 126.5,443.5C 126.167,443.5 125.833,443.5 125.5,443.5C 125.5,439.833 125.5,436.167 125.5,432.5C 124.5,432.5 123.5,432.5 122.5,432.5 Z"/></g>
<g><path style="opacity:1" fill="#eaebec" d="M 167.5,432.5 C 167.5,434.167 167.5,435.833 167.5,437.5C 167.469,447.537 167.636,457.537 168,467.5C 164.506,469.377 160.673,470.044 156.5,469.5C 156.785,467.712 156.452,466.045 155.5,464.5C 154.893,464.624 154.56,464.957 154.5,465.5C 154.5,466.167 154.5,466.833 154.5,467.5C 143.553,472.796 135.053,470.129 129,459.5C 127.564,454.101 127.064,448.767 127.5,443.5C 128.906,443.027 129.573,442.027 129.5,440.5C 130.167,440.5 130.5,440.167 130.5,439.5C 131.167,439.5 131.5,439.167 131.5,438.5C 136.002,432.497 142.002,430.33 149.5,432C 151.587,432.792 153.421,433.959 155,435.5C 155.49,434.207 155.657,432.873 155.5,431.5C 159.702,431.183 163.702,431.517 167.5,432.5 Z M 144.5,442.5 C 154.253,442.536 157.42,447.203 154,456.5C 149.291,460.769 144.958,460.436 141,455.5C 139.539,450.326 140.706,445.993 144.5,442.5 Z"/></g>
<g><path style="opacity:0.004" fill="#001219" d="M 167.5,432.5 C 169.922,434.048 169.922,435.714 167.5,437.5C 167.5,435.833 167.5,434.167 167.5,432.5 Z"/></g>
<g><path style="opacity:1" fill="#f1f2f2" d="M 175.5,432.5 C 179.5,432.5 183.5,432.5 187.5,432.5C 187.5,434.167 187.5,435.833 187.5,437.5C 187.5,448.167 187.5,458.833 187.5,469.5C 183.116,469.826 178.783,469.492 174.5,468.5C 175.479,456.551 175.813,444.551 175.5,432.5 Z"/></g>
<g><path style="opacity:0.01" fill="#001219" d="M 193.5,432.5 C 194.525,432.897 194.692,433.563 194,434.5C 193.536,433.906 193.369,433.239 193.5,432.5 Z"/></g>
<g><path style="opacity:1" fill="#f1f1f2" d="M 227.5,434.5 C 227.427,436.027 228.094,437.027 229.5,437.5C 230.966,438.347 231.8,439.68 232,441.5C 232.525,450.522 232.858,459.522 233,468.5C 229.27,469.46 225.437,469.793 221.5,469.5C 221.825,461.648 221.492,453.982 220.5,446.5C 216.759,441.611 212.592,441.277 208,445.5C 207.5,453.493 207.334,461.493 207.5,469.5C 203.233,469.797 199.066,469.464 195,468.5C 195.423,456.363 195.59,444.363 195.5,432.5C 199.167,432.5 202.833,432.5 206.5,432.5C 206.34,434.199 206.506,435.866 207,437.5C 207.717,436.956 208.217,436.289 208.5,435.5C 214.503,430.541 220.836,430.207 227.5,434.5 Z"/></g>
<g><path style="opacity:1" fill="#eaecec" d="M 312.5,437.5 C 312.833,438.5 313.5,439.167 314.5,439.5C 315.338,439.842 315.672,440.508 315.5,441.5C 315.66,443.153 316.326,444.486 317.5,445.5C 319.041,463.125 311.041,471.291 293.5,470C 281.081,466.01 276.247,457.51 279,444.5C 283.72,433.889 291.887,429.722 303.5,432C 307.2,432.843 310.2,434.676 312.5,437.5 Z M 294.5,442.5 C 303.099,441.936 306.599,445.936 305,454.5C 301.468,460.29 297.135,460.957 292,456.5C 289.688,451.229 290.522,446.562 294.5,442.5 Z"/></g>
<g><path style="opacity:1" fill="#eaecec" d="M 331.5,439.5 C 331.41,442.152 332.076,444.485 333.5,446.5C 333.5,447.167 333.5,447.833 333.5,448.5C 333.557,449.609 333.89,450.609 334.5,451.5C 335.09,452.766 335.59,454.099 336,455.5C 336.773,451.468 337.606,447.468 338.5,443.5C 339.404,442.791 339.737,441.791 339.5,440.5C 339.678,437.784 340.178,435.117 341,432.5C 345.333,431.167 349.667,431.167 354,432.5C 354.953,435.432 355.453,438.432 355.5,441.5C 355.41,444.152 356.076,446.485 357.5,448.5C 358.06,450.801 358.56,453.134 359,455.5C 361.027,447.864 362.86,440.197 364.5,432.5C 368.371,432.185 372.038,432.518 375.5,433.5C 372.37,445.558 369.036,457.558 365.5,469.5C 360.821,469.666 356.155,469.499 351.5,469C 350.512,465.255 349.845,461.422 349.5,457.5C 349.23,454.298 348.396,451.298 347,448.5C 346.536,449.094 346.369,449.761 346.5,450.5C 345.484,456.565 344.15,462.565 342.5,468.5C 337.95,469.8 333.45,469.8 329,468.5C 327.163,462.481 325.33,456.481 323.5,450.5C 323.59,447.848 322.924,445.515 321.5,443.5C 321.5,443.167 321.5,442.833 321.5,442.5C 321.125,440.302 320.458,438.302 319.5,436.5C 318.699,434.958 318.366,433.292 318.5,431.5C 322.5,431.5 326.5,431.5 330.5,431.5C 331.092,434.127 331.425,436.794 331.5,439.5 Z"/></g>
<g><path style="opacity:0.999" fill="#eeefef" d="M 413.5,445.5 C 413.5,448.5 413.5,451.5 413.5,454.5C 405.167,454.5 396.833,454.5 388.5,454.5C 388.263,455.791 388.596,456.791 389.5,457.5C 392.603,459.704 395.937,460.037 399.5,458.5C 400.167,458.167 400.833,457.833 401.5,457.5C 401.833,457.5 402.167,457.5 402.5,457.5C 406.042,457.187 409.375,457.521 412.5,458.5C 409.444,466.296 403.611,470.296 395,470.5C 379.343,468.228 373.343,459.228 377,443.5C 377.608,441.934 378.442,440.6 379.5,439.5C 380.906,439.027 381.573,438.027 381.5,436.5C 386.949,431.88 393.283,430.38 400.5,432C 407.803,433.801 412.137,438.301 413.5,445.5 Z M 399.5,444.5 C 400.478,444.811 401.145,445.478 401.5,446.5C 397.488,447.698 393.488,447.698 389.5,446.5C 389.511,444.983 390.177,443.816 391.5,443C 393.833,442.333 396.167,442.333 398.5,443C 399.056,443.383 399.389,443.883 399.5,444.5 Z"/></g>
<g><path style="opacity:1" fill="#f2f3f3" d="M 419.5,432.5 C 423.167,432.5 426.833,432.5 430.5,432.5C 430.201,434.604 430.534,436.604 431.5,438.5C 432.298,438.043 432.631,437.376 432.5,436.5C 433.802,434.178 435.802,432.845 438.5,432.5C 439.5,432.5 440.5,432.5 441.5,432.5C 441.5,436.167 441.5,439.833 441.5,443.5C 439.199,444.06 436.866,444.56 434.5,445C 433.299,445.903 432.465,447.069 432,448.5C 431.5,455.492 431.334,462.492 431.5,469.5C 427.833,469.5 424.167,469.5 420.5,469.5C 419.662,469.158 419.328,468.492 419.5,467.5C 419.5,459.5 419.5,451.5 419.5,443.5C 419.5,443.167 419.5,442.833 419.5,442.5C 419.5,439.167 419.5,435.833 419.5,432.5 Z"/></g>
<g><path style="opacity:0.644" fill="#6e777b" d="M 419.5,432.5 C 423.298,431.517 427.298,431.183 431.5,431.5C 431.216,433.415 431.549,435.081 432.5,436.5C 432.631,437.376 432.298,438.043 431.5,438.5C 430.534,436.604 430.201,434.604 430.5,432.5C 426.833,432.5 423.167,432.5 419.5,432.5 Z"/></g>
<g><path style="opacity:0.317" fill="#515d62" d="M 438.5,432.5 C 439.568,431.566 440.901,431.232 442.5,431.5C 442.817,435.702 442.483,439.702 441.5,443.5C 441.5,439.833 441.5,436.167 441.5,432.5C 440.5,432.5 439.5,432.5 438.5,432.5 Z"/></g>
<g><path style="opacity:0.011" fill="#001219" d="M 126.5,433.5 C 127.111,436.111 128.777,437.778 131.5,438.5C 131.5,439.167 131.167,439.5 130.5,439.5C 129.833,439.5 129.5,439.833 129.5,440.5C 127.952,440.821 127.285,441.821 127.5,443.5C 127.167,443.5 126.833,443.5 126.5,443.5C 126.5,440.167 126.5,436.833 126.5,433.5 Z"/></g>
<g><path style="opacity:0.012" fill="#001219" d="M 173.5,433.5 C 174.525,433.897 174.692,434.563 174,435.5C 173.536,434.906 173.369,434.239 173.5,433.5 Z"/></g>
<g><path style="opacity:0.78" fill="#70797d" d="M 227.5,434.5 C 228.906,434.973 229.573,435.973 229.5,437.5C 228.094,437.027 227.427,436.027 227.5,434.5 Z"/></g>
<g><path style="opacity:0.004" fill="#1e2b31" d="M 312.5,437.5 C 313.833,437.5 314.5,438.167 314.5,439.5C 313.5,439.167 312.833,438.5 312.5,437.5 Z"/></g>
<g><path style="opacity:0.659" fill="#5b656a" d="M 381.5,436.5 C 381.573,438.027 380.906,439.027 379.5,439.5C 379.427,437.973 380.094,436.973 381.5,436.5 Z"/></g>
<g><path style="opacity:0.094" fill="#29363c" d="M 319.5,436.5 C 320.458,438.302 321.125,440.302 321.5,442.5C 319.957,441.264 318.957,439.598 318.5,437.5C 318.624,436.893 318.957,436.56 319.5,436.5 Z"/></g>
<g><path style="opacity:0.006" fill="#212e34" d="M 315.5,441.5 C 317.104,442.287 317.771,443.62 317.5,445.5C 316.326,444.486 315.66,443.153 315.5,441.5 Z"/></g>
<g><path style="opacity:0.396" fill="#364248" d="M 339.5,440.5 C 339.737,441.791 339.404,442.791 338.5,443.5C 338.062,443.565 337.728,443.399 337.5,443C 338.066,442.005 338.733,441.172 339.5,440.5 Z"/></g>
<g><path style="opacity:0.007" fill="#001219" d="M 419.5,442.5 C 419.5,442.833 419.5,443.167 419.5,443.5C 418.842,444.398 418.176,445.398 417.5,446.5C 417.167,446.333 416.833,446.167 416.5,446C 416.974,444.271 417.974,443.105 419.5,442.5 Z"/></g>
<g><path style="opacity:0.235" fill="#5d686c" d="M 90.5,444.5 C 90.5,445.167 90.5,445.833 90.5,446.5C 87.8333,445.833 87.8333,445.167 90.5,444.5 Z"/></g>
<g><path style="opacity:0.007" fill="#212d33" d="M 321.5,443.5 C 322.924,445.515 323.59,447.848 323.5,450.5C 321.837,448.562 321.171,446.228 321.5,443.5 Z"/></g>
<g><path style="opacity:0.459" fill="#555f64" d="M 331.5,439.5 C 333.163,441.438 333.829,443.772 333.5,446.5C 332.076,444.485 331.41,442.152 331.5,439.5 Z"/></g>
<g><path style="opacity:0.004" fill="#001219" d="M 335.5,446.5 C 336.525,446.897 336.692,447.563 336,448.5C 335.536,447.906 335.369,447.239 335.5,446.5 Z"/></g>
<g><path style="opacity:0.455" fill="#5b656a" d="M 355.5,441.5 C 356.924,443.515 357.59,445.848 357.5,448.5C 356.076,446.485 355.41,444.152 355.5,441.5 Z"/></g>
<g><path style="opacity:0.333" fill="#515c61" d="M 220.5,446.5 C 221.492,453.982 221.825,461.648 221.5,469.5C 220.703,470.478 220.036,470.145 219.5,468.5C 220.465,461.224 220.799,453.891 220.5,446.5 Z"/></g>
<g><path style="opacity:0.004" fill="#18252c" d="M 333.5,448.5 C 335.382,449.221 335.715,450.221 334.5,451.5C 333.89,450.609 333.557,449.609 333.5,448.5 Z"/></g>
<g><path style="opacity:0.016" fill="#333f45" d="M 349.5,457.5 C 348.131,455.309 347.131,452.975 346.5,450.5C 346.369,449.761 346.536,449.094 347,448.5C 348.396,451.298 349.23,454.298 349.5,457.5 Z"/></g>
<g><path style="opacity:0.122" fill="#253339" d="M 413.5,445.5 C 414.16,446.964 414.493,448.631 414.5,450.5C 414.618,453.486 413.952,456.152 412.5,458.5C 409.375,457.521 406.042,457.187 402.5,457.5C 405.641,456.679 408.975,456.179 412.5,456C 407.98,455.186 403.646,455.353 399.5,456.5C 396.009,456.345 392.842,456.012 390,455.5C 389.536,456.094 389.369,456.761 389.5,457.5C 388.596,456.791 388.263,455.791 388.5,454.5C 396.833,454.5 405.167,454.5 413.5,454.5C 413.5,451.5 413.5,448.5 413.5,445.5 Z M 399.5,456.5 C 403.646,455.353 407.98,455.186 412.5,456C 408.975,456.179 405.641,456.679 402.5,457.5C 402.167,457.5 401.833,457.5 401.5,457.5C 401.158,456.662 400.492,456.328 399.5,456.5 Z"/></g>
<g><path style="opacity:0.004" fill="#1b272d" d="M 399.5,456.5 C 400.492,456.328 401.158,456.662 401.5,457.5C 400.833,457.833 400.167,458.167 399.5,458.5C 399.5,457.833 399.5,457.167 399.5,456.5 Z"/></g>
<g><path style="opacity:0.626" fill="#70787c" d="M 154.5,465.5 C 154.56,464.957 154.893,464.624 155.5,464.5C 156.452,466.045 156.785,467.712 156.5,469.5C 156.565,469.938 156.399,470.272 156,470.5C 154.961,469.756 154.461,468.756 154.5,467.5C 155.833,466.833 155.833,466.167 154.5,465.5 Z"/></g>
<g><path style="opacity:0.009" fill="#001219" d="M 419.5,467.5 C 419.328,468.492 419.662,469.158 420.5,469.5C 419.698,470.885 419.031,470.718 418.5,469C 418.57,468.235 418.903,467.735 419.5,467.5 Z"/></g>
</svg>
